<svg width="35" height="35" viewBox="0 0 35 35" fill="none" xmlns="http://www.w3.org/2000/svg">
<path d="M24.6697 7.11704C24.6697 7.13139 24.6697 7.13139 24.6697 7.14574C24.311 7.13139 23.9523 7.11704 23.5649 7.11704H12.5161L14.0515 5.59605C15.4577 4.17551 17.0074 2.86975 18.801 2.86975C20.609 2.86975 22.1587 4.17551 23.5649 5.59605L24.3684 6.39959C24.5693 6.58613 24.6697 6.84441 24.6697 7.11704Z" fill="white"/>
<path d="M29.9046 18.8964C30.4642 18.8964 30.909 18.4373 30.909 17.8633V16.6006C30.909 10.9615 29.1871 9.25397 23.5623 9.25397H14.5225H10.8779C5.25312 9.25397 3.53125 10.9758 3.53125 16.6006V17.2176C3.53125 17.7916 3.97607 18.2364 4.53568 18.2364C5.74099 18.2364 6.70237 19.2121 6.70237 20.4031C6.70237 21.594 5.74099 22.5841 4.53568 22.5841C3.97607 22.5841 3.53125 23.0289 3.53125 23.6029V24.2199C3.53125 29.859 5.25312 31.5666 10.8779 31.5666H14.5081H23.548C29.1728 31.5666 30.8947 29.8447 30.8947 24.2199C30.8947 23.6603 30.4498 23.2011 29.8902 23.2011C28.6849 23.2011 27.7235 22.2397 27.7235 21.0488C27.7379 19.8578 28.6993 18.8964 29.9046 18.8964ZM15.5269 27.061C15.5269 27.6206 15.0678 28.0798 14.5081 28.0798C13.9486 28.0798 13.4894 27.6206 13.4894 27.061V23.2155C13.4894 22.6559 13.9486 22.1967 14.5081 22.1967C15.0678 22.1967 15.5269 22.6559 15.5269 23.2155V27.061ZM15.5269 17.605C15.5269 18.1646 15.0678 18.6238 14.5081 18.6238C13.9486 18.6238 13.4894 18.1646 13.4894 17.605V13.7595C13.4894 13.1999 13.9486 12.7408 14.5081 12.7408C15.0678 12.7408 15.5269 13.1999 15.5269 13.7595V17.605Z" fill="white"/>
</svg>
