<svg width="36" height="36" viewBox="0 0 36 36" fill="none" xmlns="http://www.w3.org/2000/svg">
<g clip-path="url(#clip0_621_168)">
<path d="M18.0002 35.9997C27.9412 35.9997 36 27.9409 36 17.9998C36 8.0588 27.9412 0 18.0002 0C8.05917 0 0.000366211 8.0588 0.000366211 17.9998C0.000366211 27.9409 8.05917 35.9997 18.0002 35.9997Z" fill="#55ACEE"/>
<path d="M29.0256 12.9359C28.2543 13.278 27.4245 13.5093 26.5543 13.6126C27.4428 13.0803 28.1246 12.238 28.4464 11.2328C27.6151 11.7259 26.6939 12.0837 25.7143 12.2766C24.9295 11.4407 23.8112 10.9183 22.573 10.9183C20.1973 10.9183 18.2706 12.8451 18.2706 15.2208C18.2706 15.558 18.3087 15.8863 18.3825 16.2014C14.8068 16.022 11.6364 14.3092 9.51418 11.7054C9.1439 12.3407 8.93149 13.0803 8.93149 13.8687C8.93149 15.361 9.69161 16.6785 10.8454 17.4498C10.1405 17.4277 9.47664 17.2342 8.89683 16.9111C8.89651 16.9294 8.89651 16.9477 8.89651 16.9657C8.89651 19.0503 10.3802 20.7891 12.348 21.1841C11.9874 21.2829 11.6065 21.3352 11.2148 21.3352C10.9369 21.3352 10.6677 21.3086 10.4052 21.2585C10.9526 22.9674 12.5412 24.2114 14.4244 24.2464C12.9516 25.4005 11.0967 26.0882 9.08037 26.0882C8.73383 26.0882 8.39051 26.0679 8.05457 26.0278C9.95761 27.249 12.2197 27.961 14.6493 27.961C22.5631 27.961 26.8909 21.4051 26.8909 15.7191C26.8909 15.5327 26.8867 15.3469 26.8784 15.1627C27.7197 14.5563 28.449 13.7987 29.0256 12.9359Z" fill="#F1F2F2"/>
</g>
<defs>
<clipPath id="clip0_621_168">
<rect width="36" height="36" fill="white"/>
</clipPath>
</defs>
</svg>
