<svg width="33" height="32" viewBox="0 0 33 32" fill="none" xmlns="http://www.w3.org/2000/svg">
<path d="M20.5001 30.3334H12.5001C5.26008 30.3334 2.16675 27.24 2.16675 20V12C2.16675 4.76002 5.26008 1.66669 12.5001 1.66669H20.5001C27.7401 1.66669 30.8334 4.76002 30.8334 12V20C30.8334 27.24 27.7401 30.3334 20.5001 30.3334ZM12.5001 3.66669C6.35341 3.66669 4.16675 5.85335 4.16675 12V20C4.16675 26.1467 6.35341 28.3334 12.5001 28.3334H20.5001C26.6467 28.3334 28.8334 26.1467 28.8334 20V12C28.8334 5.85335 26.6467 3.66669 20.5001 3.66669H12.5001Z" fill="black"/>
<path d="M14.6067 20.7733C14.34 20.7733 14.0867 20.6667 13.9 20.48L10.1267 16.7067C9.74 16.32 9.74 15.68 10.1267 15.2933C10.5133 14.9067 11.1533 14.9067 11.54 15.2933L14.6067 18.36L21.46 11.5067C21.8467 11.12 22.4867 11.12 22.8733 11.5067C23.26 11.8933 23.26 12.5333 22.8733 12.92L15.3133 20.48C15.1267 20.6667 14.8733 20.7733 14.6067 20.7733Z" fill="black"/>
</svg>
