<svg width="48" height="49" viewBox="0 0 48 49" fill="none" xmlns="http://www.w3.org/2000/svg">
<path d="M19.1399 38.14C18.7599 38.14 18.3799 38 18.0799 37.7L5.93988 25.56C5.35988 24.98 5.35988 24.02 5.93988 23.44L18.0799 11.3C18.6599 10.72 19.6199 10.72 20.1999 11.3C20.7799 11.88 20.7799 12.84 20.1999 13.42L9.11988 24.5L20.1999 35.58C20.7799 36.16 20.7799 37.12 20.1999 37.7C19.9199 38 19.5199 38.14 19.1399 38.14Z" fill="#FE772D"/>
<path d="M41.0001 26H7.34009C6.52009 26 5.84009 25.32 5.84009 24.5C5.84009 23.68 6.52009 23 7.34009 23H41.0001C41.8201 23 42.5001 23.68 42.5001 24.5C42.5001 25.32 41.8201 26 41.0001 26Z" fill="#FE772D"/>
</svg>
