<svg width="33" height="32" viewBox="0 0 33 32" fill="none" xmlns="http://www.w3.org/2000/svg">
<path d="M20.5 30.3334H12.5C5.25996 30.3334 2.16663 27.24 2.16663 20V12C2.16663 4.76002 5.25996 1.66669 12.5 1.66669H20.5C27.74 1.66669 30.8333 4.76002 30.8333 12V20C30.8333 27.24 27.74 30.3334 20.5 30.3334ZM12.5 3.66669C6.35329 3.66669 4.16663 5.85335 4.16663 12V20C4.16663 26.1467 6.35329 28.3334 12.5 28.3334H20.5C26.6466 28.3334 28.8333 26.1467 28.8333 20V12C28.8333 5.85335 26.6466 3.66669 20.5 3.66669H12.5Z" fill="black"/>
<path d="M14.6067 20.7733C14.34 20.7733 14.0867 20.6667 13.9 20.48L10.1267 16.7067C9.74 16.32 9.74 15.68 10.1267 15.2933C10.5133 14.9067 11.1533 14.9067 11.54 15.2933L14.6067 18.36L21.46 11.5067C21.8467 11.12 22.4867 11.12 22.8733 11.5067C23.26 11.8933 23.26 12.5333 22.8733 12.92L15.3133 20.48C15.1267 20.6667 14.8733 20.7733 14.6067 20.7733Z" fill="black"/>
</svg>
