<svg width="32" height="32" viewBox="0 0 32 32" fill="none" xmlns="http://www.w3.org/2000/svg">
<path d="M20.0001 30.3334H12.0001C4.76008 30.3334 1.66675 27.24 1.66675 20V12C1.66675 4.76002 4.76008 1.66669 12.0001 1.66669H20.0001C27.2401 1.66669 30.3334 4.76002 30.3334 12V20C30.3334 27.24 27.2401 30.3334 20.0001 30.3334ZM12.0001 3.66669C5.85341 3.66669 3.66675 5.85335 3.66675 12V20C3.66675 26.1467 5.85341 28.3334 12.0001 28.3334H20.0001C26.1467 28.3334 28.3334 26.1467 28.3334 20V12C28.3334 5.85335 26.1467 3.66669 20.0001 3.66669H12.0001Z" fill="black"/>
<path d="M14.1067 20.7733C13.84 20.7733 13.5867 20.6667 13.4 20.48L9.62667 16.7067C9.24 16.32 9.24 15.68 9.62667 15.2933C10.0133 14.9067 10.6533 14.9067 11.04 15.2933L14.1067 18.36L20.96 11.5067C21.3467 11.12 21.9867 11.12 22.3733 11.5067C22.76 11.8933 22.76 12.5333 22.3733 12.92L14.8133 20.48C14.6267 20.6667 14.3733 20.7733 14.1067 20.7733Z" fill="black"/>
</svg>
